<mxfile host="app.diagrams.net" modified="2023-05-29T23:35:07.553Z" agent="Mozilla/5.0 (Windows NT 10.0; Win64; x64; rv:109.0) Gecko/20100101 Firefox/113.0" version="21.3.2" etag="MGyuHXZjygtQlzXYeemd" type="github">
  <diagram name="Page-1" id="okObB63wOR_T9D37Opkm">
    <mxGraphModel>
      <root>
        <mxCell id="0" />
        <mxCell id="1" parent="0" />
      </root>
    </mxGraphModel>
  </diagram>
</mxfile>
